{
  "accessors": [
    {
      "bufferView": 1,
      "componentType": 5126,
      "count": 65532,
      "max": [
        51.533740997314453,
        47.100063323974609,
        13.247458457946777
      ],
      "min": [
        40.882213592529297,
        30.571407318115234,
        7.1054273576010019e-15
      ],
      "type": "VEC3"
    },
    {
      "bufferView": 1,
      "byteOffset": 786384,
      "componentType": 5126,
      "count": 65532,
      "max": [
        0.9999849796295166,
        0.99992865324020386,
        0.99992078542709351
      ],
      "min": [
        -0.99999016523361206,
        -0.99999445676803589,
        -0.99992018938064575
      ],
      "type": "VEC3"
    },
    {
      "bufferView": 0,
      "componentType": 5125,
      "count": 289293,
      "max": [
        65531
      ],
      "min": [
        0
      ],
      "type": "SCALAR"
    },
    {
      "bufferView": 1,
      "byteOffset": 1572768,
      "componentType": 5126,
      "count": 65532,
      "max": [
        51.515113830566406,
        47.100063323974609,
        13.800847053527832
      ],
      "min": [
        40.865192413330078,
        30.571407318115234,
        0.0047726742923259735
      ],
      "type": "VEC3"
    },
    {
      "bufferView": 1,
      "byteOffset": 2359152,
      "componentType": 5126,
      "count": 65532,
      "max": [
        0.99999380111694336,
        0.99982762336730957,
        0.99994200468063354
      ],
      "min": [
        -0.99999016523361206,
        -0.99999308586120605,
        -0.99983948469161987
      ],
      "type": "VEC3"
    },
    {
      "bufferView": 0,
      "byteOffset": 1157172,
      "componentType": 5125,
      "count": 213792,
      "max": [
        65531
      ],
      "min": [
        0
      ],
      "type": "SCALAR"
    },
    {
      "bufferView": 1,
      "byteOffset": 3145536,
      "componentType": 5126,
      "count": 65532,
      "max": [
        63.648250579833984,
        58.903369903564453,
        83.979774475097656
      ],
      "min": [
        23.310731887817383,
        11.253975868225098,
        7.1054273576010019e-15
      ],
      "type": "VEC3"
    },
    {
      "bufferView": 1,
      "byteOffset": 3931920,
      "componentType": 5126,
      "count": 65532,
      "max": [
        0.99997001886367798,
        0.99999445676803589,
        0.99999052286148071
      ],
      "min": [
        -0.99999505281448364,
        -0.99996739625930786,
        -0.99986594915390015
      ],
      "type": "VEC3"
    },
    {
      "bufferView": 0,
      "byteOffset": 2012340,
      "componentType": 5125,
      "count": 214521,
      "max": [
        65531
      ],
      "min": [
        0
      ],
      "type": "SCALAR"
    },
    {
      "bufferView": 1,
      "byteOffset": 4718304,
      "componentType": 5126,
      "count": 65532,
      "max": [
        64.026710510253906,
        57.965457916259766,
        83.873252868652344
      ],
      "min": [
        23.38835334777832,
        11.447969436645508,
        2.761164665222168
      ],
      "type": "VEC3"
    },
    {
      "bufferView": 1,
      "byteOffset": 5504688,
      "componentType": 5126,
      "count": 65532,
      "max": [
        0.99997955560684204,
        0.99998843669891357,
        0.99986076354980469
      ],
      "min": [
        -0.9999920129776001,
        -0.99998378753662109,
        -0.99993699789047241
      ],
      "type": "VEC3"
    },
    {
      "bufferView": 0,
      "byteOffset": 2870424,
      "componentType": 5125,
      "count": 256302,
      "max": [
        65531
      ],
      "min": [
        0
      ],
      "type": "SCALAR"
    },
    {
      "bufferView": 1,
      "byteOffset": 6291072,
      "componentType": 5126,
      "count": 65532,
      "max": [
        64.046806335449219,
        58.903369903564453,
        83.947181701660156
      ],
      "min": [
        23.287555694580078,
        11.253975868225098,
        0.3416135311126709
      ],
      "type": "VEC3"
    },
    {
      "bufferView": 1,
      "byteOffset": 7077456,
      "componentType": 5126,
      "count": 65532,
      "max": [
        0.99998682737350464,
        0.99999445676803589,
        0.99999493360519409
      ],
      "min": [
        -0.99999505281448364,
        -0.99995577335357666,
        -0.99999463558197021
      ],
      "type": "VEC3"
    },
    {
      "bufferView": 0,
      "byteOffset": 3895632,
      "componentType": 5125,
      "count": 229278,
      "max": [
        65531
      ],
      "min": [
        0
      ],
      "type": "SCALAR"
    },
    {
      "bufferView": 1,
      "byteOffset": 7863840,
      "componentType": 5126,
      "count": 65534,
      "max": [
        64.046806335449219,
        58.84625244140625,
        83.604660034179688
      ],
      "min": [
        23.586040496826172,
        11.253975868225098,
        0.067428611218929291
      ],
      "type": "VEC3"
    },
    {
      "bufferView": 1,
      "byteOffset": 8650248,
      "componentType": 5126,
      "count": 65534,
      "max": [
        1,
        0.99999022483825684,
        0.99999785423278809
      ],
      "min": [
        -0.99993562698364258,
        -0.99989098310470581,
        -0.99992132186889648
      ],
      "type": "VEC3"
    },
    {
      "bufferView": 0,
      "byteOffset": 4812744,
      "componentType": 5125,
      "count": 173007,
      "max": [
        65533
      ],
      "min": [
        0
      ],
      "type": "SCALAR"
    },
    {
      "bufferView": 1,
      "byteOffset": 9436656,
      "componentType": 5126,
      "count": 65534,
      "max": [
        63.915504455566406,
        58.594165802001953,
        83.873451232910156
      ],
      "min": [
        23.399917602539062,
        11.253975868225098,
        0.012551930733025074
      ],
      "type": "VEC3"
    },
    {
      "bufferView": 1,
      "byteOffset": 10223064,
      "componentType": 5126,
      "count": 65534,
      "max": [
        0.99996739625930786,
        0.99998843669891357,
        0.9999537467956543
      ],
      "min": [
        -0.99996209144592285,
        -0.99995315074920654,
        -0.99991893768310547
      ],
      "type": "VEC3"
    },
    {
      "bufferView": 0,
      "byteOffset": 5504772,
      "componentType": 5125,
      "count": 107169,
      "max": [
        65533
      ],
      "min": [
        0
      ],
      "type": "SCALAR"
    },
    {
      "bufferView": 1,
      "byteOffset": 11009472,
      "componentType": 5126,
      "count": 7385,
      "max": [
        63.933792114257812,
        57.51422119140625,
        83.924575805664062
      ],
      "min": [
        23.744909286499023,
        11.446748733520508,
        7.1054273576010019e-15
      ],
      "type": "VEC3"
    },
    {
      "bufferView": 1,
      "byteOffset": 11098092,
      "componentType": 5126,
      "count": 7385,
      "max": [
        0.99956780672073364,
        0.99937707185745239,
        0.99914586544036865
      ],
      "min": [
        -0.99989056587219238,
        -0.99927788972854614,
        -0.99981516599655151
      ],
      "type": "VEC3"
    },
    {
      "bufferView": 0,
      "byteOffset": 5933448,
      "componentType": 5125,
      "count": 7746,
      "max": [
        7384
      ],
      "min": [
        0
      ],
      "type": "SCALAR"
    }
  ],
  "asset": {
    "extras": {
      "author": "Masterclip (https://sketchfab.com/masterclip)",
      "license": "CC-BY-4.0 (http://creativecommons.org/licenses/by/4.0/)",
      "source": "https://sketchfab.com/models/90122763afa94acc8f53a411d7203e51",
      "title": "ANT-MAN for 3dprint"
    },
    "generator": "Sketchfab-3.22.6",
    "version": "2.0"
  },
  "bufferViews": [
    {
      "buffer": 0,
      "byteLength": 5964432,
      "byteOffset": 0,
      "name": "floatBufferViews",
      "target": 34963
    },
    {
      "buffer": 0,
      "byteLength": 11186712,
      "byteOffset": 5964432,
      "byteStride": 12,
      "name": "floatBufferViews",
      "target": 34962
    }
  ],
  "buffers": [
    {
      "byteLength": 17151144,
      "uri": "scene.bin"
    }
  ],
  "materials": [
    {
      "doubleSided": true,
      "emissiveFactor": [
        0,
        0,
        0
      ],
      "name": "Scene_-_Root",
      "pbrMetallicRoughness": {
        "baseColorFactor": [
          0.1410743112,
          0.1410743112,
          0.1410743112,
          1
        ],
        "metallicFactor": 0.13302087779999999,
        "roughnessFactor": 0.35802087780000003
      }
    }
  ],
  "meshes": [
    {
      "primitives": [
        {
          "attributes": {
            "NORMAL": 1,
            "POSITION": 0
          },
          "indices": 2,
          "material": 0,
          "mode": 4
        }
      ]
    },
    {
      "primitives": [
        {
          "attributes": {
            "NORMAL": 4,
            "POSITION": 3
          },
          "indices": 5,
          "material": 0,
          "mode": 4
        }
      ]
    },
    {
      "primitives": [
        {
          "attributes": {
            "NORMAL": 7,
            "POSITION": 6
          },
          "indices": 8,
          "material": 0,
          "mode": 4
        }
      ]
    },
    {
      "primitives": [
        {
          "attributes": {
            "NORMAL": 10,
            "POSITION": 9
          },
          "indices": 11,
          "material": 0,
          "mode": 4
        }
      ]
    },
    {
      "primitives": [
        {
          "attributes": {
            "NORMAL": 13,
            "POSITION": 12
          },
          "indices": 14,
          "material": 0,
          "mode": 4
        }
      ]
    },
    {
      "primitives": [
        {
          "attributes": {
            "NORMAL": 16,
            "POSITION": 15
          },
          "indices": 17,
          "material": 0,
          "mode": 4
        }
      ]
    },
    {
      "primitives": [
        {
          "attributes": {
            "NORMAL": 19,
            "POSITION": 18
          },
          "indices": 20,
          "material": 0,
          "mode": 4
        }
      ]
    },
    {
      "primitives": [
        {
          "attributes": {
            "NORMAL": 22,
            "POSITION": 21
          },
          "indices": 23,
          "material": 0,
          "mode": 4
        }
      ]
    }
  ],
  "nodes": [
    {
      "children": [
        1
      ],
      "name": "RootNode (gltf orientation matrix)",
      "rotation": [
        -0.70710678118654746,
        -0,
        -0,
        0.70710678118654757
      ]
    },
    {
      "children": [
        2
      ],
      "matrix": [
        1,
        0,
        0,
        0,
        0,
        -0.89374834299087524,
        -0.44856876134872437,
        0,
        0,
        0.44856876134872437,
        -0.89374834299087524,
        0,
        0,
        47.403213500976562,
        95.339912414550781,
        1
      ],
      "name": "RootNode (model correction matrix)"
    },
    {
      "children": [
        3,
        4,
        5,
        6,
        7,
        8,
        9,
        10
      ],
      "name": "SUPER-HIGH-RES_ANT-MAN_02.stl.cleaner.gles"
    },
    {
      "mesh": 0,
      "name": ""
    },
    {
      "mesh": 1,
      "name": ""
    },
    {
      "mesh": 2,
      "name": ""
    },
    {
      "mesh": 3,
      "name": ""
    },
    {
      "mesh": 4,
      "name": ""
    },
    {
      "mesh": 5,
      "name": ""
    },
    {
      "mesh": 6,
      "name": ""
    },
    {
      "mesh": 7,
      "name": ""
    }
  ],
  "scene": 0,
  "scenes": [
    {
      "name": "OSG_Scene",
      "nodes": [
        0
      ]
    }
  ]
}

